:SAMPLES-PER-SECOND 24
:FULLY-SPECIFIED
:DEGREES
197
root  -0.930133 38.6445 24.5438 168.945 64.214 173.605
RightUpLeg  1.4357 -5.32055 -18.7235
RightLeg  30.1475 10.2535 6.1456
RightFoot  -11.8707 -0.0167672 15.8337
RightToes  -1.74623e-010 0 -2.59999e-017
Spine  2.72978 1.63647 0.376451
Spine1  18.3892 2.49947 -3.9098
HEad  -26.8147 48.0993 -28.807
LeftShoulder1  1.75576 -3.06965 -20.2703
LeftArm  8.06759 5.03769 -48.468
LeftForeArm  15.7662 -28.2511 -5.2375
LeftHand  0.421497 7.1481 28.4136
RightShoulder  2.84317 5.05593 27.2393
RightArm  4.0964 7.1542 53.4769
RightForeArm  120.754 69.7493 147.162
RightHand  1.64774 -11.2686 -31.5477
LeftUpLeg  -4.83968 6.46053 10.9192
LeftLeg  28.9583 -4.57579 -2.35743
LeftFoot  -6.16742 0.646155 -13.0712
LeftToes  -6.27559e-011 -2.10356e-011 8.24929e-012
198
root  -0.668572 40.2 24.43 170.083 64.9813 173.894
RightUpLeg  2.92851 -6.01818 -18.1074
RightLeg  22.9721 10.8672 4.80978
RightFoot  -0.408529 -1.54806 16.083
RightToes  -1.74623e-010 0 -2.59999e-017
Spine  1.66208 2.06215 1.42041
Spine1  16.564 3.27062 -4.47033
HEad  -22.4858 49.2092 -25.8432
LeftShoulder1  1.8422 -3.13427 -21.3796
LeftArm  12.193 8.23222 -48.5966
LeftForeArm  1.32081 -26.7951 -5.68833
LeftHand  0.131579 5.95214 26.6897
RightShoulder  2.90081 5.17144 27.4693
RightArm  9.49714 -1.94305 53.0897
RightForeArm  121.499 67.2946 151.022
RightHand  1.17611 -10.448 -26.8351
LeftUpLeg  -2.33959 7.72 10.8366
LeftLeg  21.1095 -4.14005 -1.41659
LeftFoot  5.64003 1.90513 -12.9536
LeftToes  -6.27559e-011 -2.10356e-011 8.24929e-012
199
root  -0.534758 41.1213 24.3793 171.141 65.6779 173.896
RightUpLeg  2.68914 -6.71784 -17.6078
RightLeg  19.1487 9.84772 3.58052
RightFoot  6.43359 -2.41876 15.664
RightToes  -1.74623e-010 0 -2.59999e-017
Spine  0.814973 1.84514 1.62303
Spine1  14.8198 3.17982 -4.84933
HEad  -21.8355 50.54 -25.3554
LeftShoulder1  1.94289 -3.36052 -21.9702
LeftArm  10.6109 13.5537 -46.5785
LeftForeArm  7.15552 -31.292 -6.46539
LeftHand  -0.281012 3.11581 13.9642
RightShoulder  2.70826 4.954 25.9939
RightArm  14.5864 -6.17998 52.1071
RightForeArm  128.516 65.4275 154.073
RightHand  0.283465 -7.68599 -15.3348
LeftUpLeg  -1.81058 8.82698 10.3466
LeftLeg  16.9715 -0.891486 -0.206644
LeftFoot  12.1117 1.99627 -9.95718
LeftToes  -6.27559e-011 -2.10356e-011 8.24929e-012
200
root  -0.546745 41.3741 24.423 172.03 66.0547 174.396
RightUpLeg  2.25681 -6.72053 -17.0702
RightLeg  18.509 9.62577 3.37367
RightFoot  7.41637 -2.6993 16.5606
RightToes  -1.74623e-010 0 -2.59999e-017
Spine  0.658437 1.57715 1.39333
Spine1  14.1478 2.82359 -4.63835
HEad  -23.9356 50.6643 -26.4034
LeftShoulder1  1.89744 -3.62426 -20.1761
LeftArm  8.4744 17.5674 -47.0187
LeftForeArm  18.8967 -37.3133 -7.38832
LeftHand  -0.332246 0.921529 8.49128
RightShoulder  2.3929 4.47649 23.8585
RightArm  16.3425 -6.16458 51.3419
RightForeArm  138.287 62.9874 157.494
RightHand  -0.133983 -3.87138 -8.44663
LeftUpLeg  -2.38586 10.1084 10.1451
LeftLeg  17.6925 -0.0670132 0.136916
LeftFoot  12.8089 1.65904 -8.10595
LeftToes  -6.27559e-011 -2.10356e-011 8.24929e-012
201
root  -0.653273 41.0547 24.5204 171.801 66.315 174.698
RightUpLeg  2.52638 -6.29316 -16.9926
RightLeg  19.8539 11.8128 4.4954
RightFoot  5.08591 -2.41017 16.8529
RightToes  -1.74623e-010 0 -2.59999e-017
Spine  1.70285 1.71958 0.311879
Spine1  14.1447 2.4451 -2.98201
HEad  -26.1821 49.8976 -28.1368
LeftShoulder1  1.87118 -3.88223 -18.7941
LeftArm  10.5692 18.1266 -47.2549
LeftForeArm  22.194 -42.5669 -8.80016
LeftHand  -0.329109 1.75394 10.4599
RightShoulder  2.17199 4.07231 22.4685
RightArm  13.894 -3.24731 49.2048
RightForeArm  140.773 60.1886 160.046
RightHand  -0.149506 -3.30868 -7.58399
LeftUpLeg  -2.43648 11.4188 10.2726
LeftLeg  20.5142 -1.58882 -0.31773
LeftFoot  10.8869 1.83014 -9.65703
LeftToes  -6.27559e-011 -2.10356e-011 8.24929e-012
202
root  -0.811189 40.0583 24.6752 170.666 66.4579 174.355
RightUpLeg  2.5824 -5.94615 -17.4316
RightLeg  23.4178 13.7822 6.26131
RightFoot  -2.5548 -1.19607 15.1691
RightToes  -1.74623e-010 0 -2.59999e-017
Spine  3.51124 1.79656 -1.08444
Spine1  13.7731 1.96932 -1.60986
HEad  -27.6658 49.3616 -28.8802
LeftShoulder1  1.91277 -4.07946 -18.677
LeftArm  12.1948 16.9831 -45.368
LeftForeArm  23.0014 -47.2363 -10.4525
LeftHand  -0.301433 2.23042 10.8547
RightShoulder  2.11074 3.96826 22.0197
RightArm  7.68825 1.80163 46.2089
RightForeArm  135.375 59.7184 159.964
RightHand  -0.091642 -4.25026 -7.53277
LeftUpLeg  -2.94163 12.5051 10.5136
LeftLeg  25.1458 -1.77449 -0.559175
LeftFoot  3.512 1.43935 -11.199
LeftToes  -6.27559e-011 -2.10356e-011 8.24929e-012
203
root  -1.05408 38.6153 24.8354 172.514 66.1508 176.816
RightUpLeg  1.73798 -6.76126 -16.8282
RightLeg  28.2026 13.6678 7.61743
RightFoot  -13.4495 0.165381 13.9102
RightToes  -1.74623e-010 0 -2.59999e-017
Spine  4.61639 1.09026 -0.547438
Spine1  14.3736 1.09621 -1.4932
HEad  -31.4206 49.0574 -30.5842
LeftShoulder1  1.8735 -3.9138 -18.7133
LeftArm  10.6788 14.2943 -43.0422
LeftForeArm  24.1257 -50.2292 -11.6316
LeftHand  -0.292665 1.99675 9.83418
RightShoulder  2.1723 4.01988 22.6835
RightArm  -0.418081 9.65038 42.777
RightForeArm  128.73 63.092 156.522
RightHand  -0.0606286 -4.8134 -8.3611
LeftUpLeg  -5.93601 12.5432 11.9709
LeftLeg  32.7766 -1.75266 -0.849716
LeftFoot  -7.32774 0.451776 -11.6126
LeftToes  -6.27559e-011 -2.10356e-011 8.24929e-012
204
root  -1.29345 37.5542 24.7812 177.169 65.5961 -178.336
RightUpLeg  0.82568 -8.3532 -15.2771
RightLeg  30.9717 12.823 7.97078
RightFoot  -19.9739 0.865939 13.175
RightToes  -1.74623e-010 0 -2.59999e-017
Spine  3.93783 0.189205 1.63993
Spine1  16.8542 0.0396107 -0.995255
HEad  -37.056 48.8732 -35.101
LeftShoulder1  1.81855 -3.42477 -19.778
LeftArm  7.909 10.4769 -41.862
LeftForeArm  25.587 -49.9312 -11.388
LeftHand  -0.252549 3.27768 13.6623
RightShoulder  2.36281 4.22799 24.4653
RightArm  -6.44944 16.9718 39.9979
RightForeArm  122.829 68.6911 149.139
RightHand  0.258418 -7.37684 -15.3044
LeftUpLeg  -9.02821 11.1462 13.8784
LeftLeg  38.4656 -1.99279 -1.30003
LeftFoot  -14.3975 -0.242429 -12.3081
LeftToes  -6.27559e-011 -2.10356e-011 8.24929e-012
205
root  -1.29399 37.7175 24.4145 178.832 65.1878 -177.311
RightUpLeg  0.952342 -8.70017 -15.1306
RightLeg  29.4836 12.6894 7.43093
RightFoot  -18.4436 0.736072 13.7415
RightToes  -1.74623e-010 0 -2.59999e-017
Spine  2.13068 0.432675 2.46353
Spine1  18.565 -0.103028 0.0209997
HEad  -38.1498 48.8108 -37.6132
LeftShoulder1  1.81505 -3.12429 -20.9865
LeftArm  6.5641 9.64485 -43.6145
LeftForeArm  28.8083 -47.372 -10.0757
LeftHand  0.0259299 5.54999 21.8889
RightShoulder  2.61568 4.60542 26.2467
RightArm  -7.9664 15.1108 40.4696
RightForeArm  118.057 71.9281 142.682
RightHand  1.45232 -11.1038 -28.9743
LeftUpLeg  -8.50345 9.82174 13.2259
LeftLeg  36.2253 -0.749438 -0.267944
LeftFoot  -14.9225 -0.304271 -12.6247
LeftToes  -6.27559e-011 -2.10356e-011 8.24929e-012
206
root  -1.08848 39.014 23.8792 176.658 63.4508 179.386
RightUpLeg  1.85988 -8.34417 -16.4225
RightLeg  25.8251 10.7431 5.40505
RightFoot  -9.07346 -0.421654 16.8709
RightToes  -1.74623e-010 0 -2.59999e-017
Spine  0.976576 1.25338 1.60568
Spine1  17.3467 0.584393 0.834249
HEad  -33.2834 48.2258 -34.7566
LeftShoulder1  1.7916 -3.08233 -20.7957
LeftArm  8.4192 13.4189 -46.3666
LeftForeArm  29.2681 -46.1965 -9.5825
LeftHand  0.0426355 5.60748 25.5727
RightShoulder  2.97519 5.12642 28.5356
RightArm  -7.63527 3.07854 41.8342
RightForeArm  119.25 70.9749 144.747
RightHand  2.05945 -11.3042 -38.6943
LeftUpLeg  -5.7933 9.30994 10.6532
LeftLeg  28.4279 -1.25878 -0.389673
LeftFoot  -7.77707 0.397821 -11.7457
LeftToes  -6.27559e-011 -2.10356e-011 8.24929e-012
207
root  -0.925772 40.4942 23.3808 175.19 58.5581 177.178
RightUpLeg  3.03385 -9.71576 -17.124
RightLeg  23.1264 4.06496 1.68649
RightFoot  4.08888 -2.36275 17.5238
RightToes  -1.74623e-010 0 -2.59999e-017
Spine  0.788239 1.0897 0.621143
Spine1  15.3601 0.289408 2.31474
HEad  -28.4312 46.5491 -30.9032
LeftShoulder1  1.82514 -3.14886 -21.0437
LeftArm  12.1896 17.8568 -45.5415
LeftForeArm  25.9825 -48.0968 -10.5698
LeftHand  -0.329934 3.55865 20.5591
RightShoulder  3.44186 5.68931 31.5551
RightArm  -6.60221 -9.58133 40.9325
RightForeArm  124.627 68.3766 149.839
RightHand  1.4455 -9.80115 -36.4775
LeftUpLeg  -5.40589 10.2579 9.33004
LeftLeg  23.4059 -7.8299 -3.36805
LeftFoot  4.71322 1.79078 -12.859
LeftToes  -6.27559e-011 -2.10356e-011 8.24929e-012
208
root  -0.838754 41.3946 22.978 175.244 51.8488 176.94
RightUpLeg  4.92667 -11.1015 -16.8225
RightLeg  21.0398 0.620179 0.0356508
RightFoot  10.2851 -2.73667 14.5681
RightToes  -1.74623e-010 0 -2.59999e-017
Spine  -0.0294136 0.22515 -0.0390402
Spine1  15.6109 -0.925339 3.78271
HEad  -25.866 44.0227 -28.1711
LeftShoulder1  1.84824 -3.19087 -21.2276
LeftArm  14.782 19.9798 -43.3377
LeftForeArm  24.7858 -50.9483 -11.9066
LeftHand  -0.410186 2.0396 14.065
RightShoulder  3.59049 5.89228 32.3326
RightArm  -4.05657 -17.7464 40.7002
RightForeArm  131.989 67.0866 152.456
RightHand  0.679193 -8.08503 -28.7273
LeftUpLeg  -8.19898 12.8261 8.99841
LeftLeg  23.7892 -11.7137 -5.27007
LeftFoot  12.8891 3.28762 -15.6739
LeftToes  -6.27559e-011 -2.10356e-011 8.24929e-012
209
root  -0.775618 41.7609 22.6236 175.847 45.4375 176.965
RightUpLeg  6.93841 -8.76268 -15.3538
RightLeg  18.0574 6.09257 1.9633
RightFoot  7.84037 -2.39619 14.4806
RightToes  -1.74623e-010 0 -2.59999e-017
Spine  -1.6576 -0.239948 -0.263716
Spine1  17.0589 -1.47526 3.65531
HEad  -23.7329 40.6185 -24.8914
LeftShoulder1  1.7249 -3.16422 -19.3649
LeftArm  16.0439 20.0246 -43.5353
LeftForeArm  26.1001 -52.1933 -12.3975
LeftHand  -0.433277 1.39583 12.5145
RightShoulder  3.32449 5.69136 30.2445
RightArm  -1.04765 -22.48 42.8249
RightForeArm  138.633 67.397 152.815
RightHand  0.0792844 -5.83892 -22.0042
LeftUpLeg  -12.0436 16.2395 8.28176
LeftLeg  24.5326 -8.09815 -3.68637
LeftFoot  11.9065 3.0158 -14.9033
LeftToes  -6.27559e-011 -2.10356e-011 8.24929e-012
210
root  -0.745474 41.6186 22.3853 176.595 38.8947 176.388
RightUpLeg  8.33196 -5.52999 -13.8309
RightLeg  15.3762 13.5837 3.74986
RightFoot  4.34531 -2.21961 16.2867
RightToes  -1.74623e-010 0 -2.59999e-017
Spine  -2.26515 -0.418288 -1.39811
Spine1  16.6217 -1.69045 3.28327
HEad  -21.27 36.7763 -21.4887
LeftShoulder1  1.6821 -3.2406 -18.3693
LeftArm  17.3851 18.2211 -42.9629
LeftForeArm  25.1137 -51.6096 -12.1965
LeftHand  -0.444936 1.54544 13.3684
RightShoulder  3.16159 5.55995 28.9539
RightArm  2.11027 -24.5409 42.5707
RightForeArm  141.721 67.8571 152.595
RightHand  -0.233033 -3.8868 -17.3605
LeftUpLeg  -16.83 19.7343 6.01275
LeftLeg  22.4869 -4.40162 -1.65994
LeftFoot  8.468 1.94546 -11.3848
LeftToes  -6.27559e-011 -2.10356e-011 8.24929e-012
211
root  -0.722472 40.8565 22.1933 177.589 31.0741 176.262
RightUpLeg  11.0435 -7.51307 -13.4641
RightLeg  13.8664 15.3803 4.15959
RightFoot  -0.617645 -1.3394 14.1589
RightToes  -1.74623e-010 0 -2.59999e-017
Spine  -1.6273 -0.786683 -2.50233
Spine1  14.8659 -2.25357 3.88158
HEad  -19.4891 32.2581 -18.6972
LeftShoulder1  1.78564 -3.33732 -19.6183
LeftArm  17.6854 14.176 -40.3676
LeftForeArm  22.7968 -50.0261 -11.6453
LeftHand  -0.439825 1.63649 13.5219
RightShoulder  3.28109 5.72171 29.6508
RightArm  4.77373 -23.9561 39.2769
RightForeArm  141.249 68.0752 152.252
RightHand  -0.323969 -3.37535 -18.1786
LeftUpLeg  -22.0055 22.7096 2.28958
LeftLeg  17.3671 -4.36997 -1.49006
LeftFoot  6.42985 1.56404 -10.2349
LeftToes  -6.27559e-011 -2.10356e-011 8.24929e-012
